<svg width="575" height="107" viewBox="0 0 575 107" fill="none" xmlns="http://www.w3.org/2000/svg">
<path d="M584 12.7263C550.728 39.3686 524.448 50.6465 481.763 48.7529C443.216 47.0428 401.286 28.7694 365.434 15.4534C321.047 -1.03289 233.917 -13.9179 208.125 38.5621C188.098 79.3114 218.115 128.039 265.354 114.778C283.566 109.665 292.977 85.3968 284.91 68.5603C276.197 50.3756 250.151 41.6092 232.138 37.4138C183.762 26.1466 151.532 71.3806 107.757 79.3252C66.8595 86.7476 36.4895 68.4608 5.5202 43.7293C2.86747 41.6109 4.22604 55.7056 4.22604 59.2308C4.22604 72.1538 1.63766 66.4183 1.63766 56.6472C1.63766 50.363 -1.67865 37.002 6.8143 40.5715C12.9417 43.1467 25.8212 43.7293 32.6971 43.7293" stroke="#E6F6F4" stroke-width="1.5" stroke-linecap="round"/>
</svg>
