<svg width="142" height="40" viewBox="0 0 142 40" fill="none" xmlns="http://www.w3.org/2000/svg">
<g clip-path="url(#clip0_1813_5830)">
<path fill-rule="evenodd" clip-rule="evenodd" d="M135.638 13.2983L141.72 19.7798C142.093 20.1776 142.093 20.8224 141.72 21.2202L135.638 27.7017C135.265 28.0994 134.66 28.0994 134.287 27.7017C133.914 27.304 133.914 26.6591 134.287 26.2614L139.693 20.5L134.287 14.7386C133.914 14.3409 133.914 13.696 134.287 13.2983C134.66 12.9006 135.265 12.9006 135.638 13.2983ZM-94.0366 21.5185H-95V19.4815H-94.0366V21.5185ZM-87.2924 21.5185H-89.2193V19.4815H-87.2924V21.5185ZM-80.5483 21.5185H-82.4752V19.4815H-80.5483V21.5185ZM-73.8042 21.5185H-75.7311V19.4815H-73.8042V21.5185ZM-67.0601 21.5185H-68.9869V19.4815H-67.0601V21.5185ZM-60.3159 21.5185H-62.2428V19.4815H-60.3159V21.5185ZM-53.5718 21.5185H-55.4987V19.4815H-53.5718V21.5185ZM-46.8277 21.5185H-48.7546V19.4815H-46.8277V21.5185ZM-40.0835 21.5185H-42.0104V19.4815H-40.0835V21.5185ZM-33.3394 21.5185H-35.2663V19.4815H-33.3394V21.5185ZM-26.5953 21.5185H-28.5222V19.4815H-26.5953V21.5185ZM-19.8512 21.5185H-21.7781V19.4815H-19.8512V21.5185ZM-13.107 21.5185H-15.0339V19.4815H-13.107V21.5185ZM-6.36292 21.5185H-8.28982V19.4815H-6.36292V21.5185ZM0.381203 21.5185H-1.54568V19.4815H0.381203V21.5185ZM7.12534 21.5185H5.19845V19.4815H7.12534V21.5185ZM13.8695 21.5185H11.9426V19.4815H13.8695V21.5185ZM20.6136 21.5185H18.6867V19.4815H20.6136V21.5185ZM27.3577 21.5185H25.4308V19.4815H27.3577V21.5185ZM34.1018 21.5185H32.1749V19.4815H34.1018V21.5185ZM40.846 21.5185H38.9191V19.4815H40.846V21.5185ZM47.5901 21.5185H45.6632V19.4815H47.5901V21.5185ZM54.3342 21.5185H52.4073V19.4815H54.3342V21.5185ZM61.0783 21.5185H59.1514V19.4815H61.0783V21.5185ZM67.8225 21.5185H65.8956V19.4815H67.8225V21.5185ZM74.5666 21.5185H72.6397V19.4815H74.5666V21.5185ZM81.3107 21.5185H79.3838V19.4815H81.3107V21.5185ZM88.0548 21.5185H86.1279V19.4815H88.0548V21.5185ZM94.799 21.5185H92.8721V19.4815H94.799V21.5185ZM101.543 21.5185H99.6162V19.4815H101.543V21.5185ZM108.287 21.5185H106.36V19.4815H108.287V21.5185ZM115.031 21.5185H113.104V19.4815H115.031V21.5185ZM121.775 21.5185H119.849V19.4815H121.775V21.5185ZM128.52 21.5185H126.593V19.4815H128.52V21.5185ZM135.264 21.5185H133.337V19.4815H135.264V21.5185Z" fill="white"/>
</g>
<defs>
<clipPath id="clip0_1813_5830">
<rect width="142" height="40" fill="white"/>
</clipPath>
</defs>
</svg>
