<svg width="50" height="50" viewBox="0 0 50 50" fill="none" xmlns="http://www.w3.org/2000/svg">
<path d="M25 4.6875C14.4863 4.6875 6.25 9.49219 6.25 15.625V34.375C6.25 40.5078 14.4863 45.3125 25 45.3125C35.5137 45.3125 43.75 40.5078 43.75 34.375V15.625C43.75 9.49219 35.5137 4.6875 25 4.6875ZM40.625 25C40.625 26.8789 39.0859 28.7949 36.4043 30.2578C33.3848 31.9043 29.334 32.8125 25 32.8125C20.666 32.8125 16.6152 31.9043 13.5957 30.2578C10.9141 28.7949 9.375 26.8789 9.375 25V21.75C12.707 24.6797 18.4043 26.5625 25 26.5625C31.5957 26.5625 37.293 24.6719 40.625 21.75V25ZM13.5957 10.3672C16.6152 8.7207 20.666 7.8125 25 7.8125C29.334 7.8125 33.3848 8.7207 36.4043 10.3672C39.0859 11.8301 40.625 13.7461 40.625 15.625C40.625 17.5039 39.0859 19.4199 36.4043 20.8828C33.3848 22.5293 29.334 23.4375 25 23.4375C20.666 23.4375 16.6152 22.5293 13.5957 20.8828C10.9141 19.4199 9.375 17.5039 9.375 15.625C9.375 13.7461 10.9141 11.8301 13.5957 10.3672ZM36.4043 39.6328C33.3848 41.2793 29.334 42.1875 25 42.1875C20.666 42.1875 16.6152 41.2793 13.5957 39.6328C10.9141 38.1699 9.375 36.2539 9.375 34.375V31.125C12.707 34.0547 18.4043 35.9375 25 35.9375C31.5957 35.9375 37.293 34.0469 40.625 31.125V34.375C40.625 36.2539 39.0859 38.1699 36.4043 39.6328Z" fill="white"/>
</svg>
