<svg width="415" height="220" viewBox="0 0 415 220" fill="none" xmlns="http://www.w3.org/2000/svg">
<g clip-path="url(#clip0_0_920)">
<path d="M47.1239 102.998H44.772V218.832H47.1239V102.998Z" fill="#E6F6F4"/>
<path d="M20.6167 140.027C10.8063 153.02 4.89459 169.743 4.89459 188.014C4.89459 197.065 6.35662 205.734 9.02641 213.767H46.128V140.027H20.6167Z" fill="#E6F6F4"/>
<path d="M4.87342 188.014C4.87342 197.065 6.37783 205.734 9.09 213.767H47.1027V119.043C22.2694 130.468 4.85223 157.026 4.85223 187.993L4.87342 188.014ZM44.4329 211.075H11.0606C8.75098 203.656 7.5644 195.899 7.5644 188.014C7.5644 160.502 21.9092 135.618 44.4329 123.41V211.075Z" fill="#E6F6F4"/>
<path d="M20.1929 188.014C20.1929 197.065 21.1464 205.734 22.8839 213.767H47.1239V119.043C31.2959 130.468 20.1929 157.026 20.1929 187.993V188.014ZM44.4329 211.075H25.0875C23.6255 203.635 22.8839 195.899 22.8839 188.014C22.8839 161.498 31.2111 137.505 44.4329 124.809V211.075Z" fill="#E6F6F4"/>
<path d="M18.964 139.815C18.8157 142.083 27.1852 144.457 37.6313 145.093C48.0774 145.729 56.6589 144.415 56.8072 142.147C56.9555 139.879 48.5859 137.505 38.1399 136.869C27.6938 136.233 19.1123 137.547 18.964 139.815Z" fill="#E6F6F4"/>
<path d="M179.829 156.136L199.027 158.912C200.34 159.103 201.315 160.078 201.315 161.244V213.046H179.829V156.136Z" fill="#E6F6F4"/>
<path d="M179.829 180.023H158.344V213.046H179.829V180.023Z" fill="#E6F6F4"/>
<path d="M165.972 141.468H179.808V184.474H163.451V143.991C163.451 142.592 164.574 141.468 165.972 141.468Z" fill="#E6F6F4"/>
<path d="M179.829 115.885L194.047 118.598C195.297 118.831 196.187 119.785 196.187 120.887V166.628H179.829V115.885Z" fill="#E6F6F4"/>
<path d="M179.829 117.03H169.426V166.628H179.829V117.03Z" fill="#E6F6F4"/>
<path d="M171.947 92.2309H179.829V141.829H169.426V94.732C169.426 93.3331 170.549 92.2097 171.947 92.2097V92.2309Z" fill="#E6F6F4"/>
<path d="M179.829 66.2876L188.39 68.8523C189.492 69.1914 190.233 70.0816 190.233 71.0778V119.997H179.829V66.2876Z" fill="#E6F6F4"/>
<path d="M177.647 42.612H179.808V92.2098H175.126V45.1131C175.126 43.7142 176.249 42.5908 177.647 42.5908V42.612Z" fill="#E6F6F4"/>
<path d="M179.829 19.7844L184.512 21.7556V69.3822H179.829V19.7844Z" fill="#E6F6F4"/>
<path d="M179.808 0.941406H178.41V42.8028H179.808V0.941406Z" fill="#E6F6F4"/>
<path d="M211.528 186.467H148.11V213.067H211.528V186.467Z" fill="#E6F6F4"/>
<path d="M247.549 134.431C245.388 134.431 243.629 136.191 243.629 138.353C243.629 140.515 245.388 142.274 247.549 142.274C249.71 142.274 251.469 140.515 251.469 138.353C251.469 136.191 249.71 134.431 247.549 134.431Z" fill="#E6F6F4"/>
<path d="M247.549 102.998C240.345 119.934 234.412 162.643 234.412 208.383H260.707C260.707 162.643 255.219 119.934 247.57 102.998H247.549ZM247.549 143.609C244.646 143.609 242.294 141.256 242.294 138.353C242.294 135.449 244.646 133.096 247.549 133.096C250.452 133.096 252.804 135.449 252.804 138.353C252.804 141.256 250.452 143.609 247.549 143.609Z" fill="#E6F6F4"/>
<path d="M66.0879 160.396L64.0326 151.875L61.9773 160.396V206.179H66.1091V160.396H66.0879Z" fill="#E6F6F4"/>
<path d="M64.0326 161.223C65.4603 161.223 66.6176 160.928 66.6176 160.566C66.6176 160.203 65.4603 159.908 64.0326 159.908C62.6049 159.908 61.4476 160.203 61.4476 160.566C61.4476 160.928 62.6049 161.223 64.0326 161.223Z" fill="#E6F6F4"/>
<path d="M64.0326 168.005C65.4603 168.005 66.6176 167.711 66.6176 167.348C66.6176 166.985 65.4603 166.691 64.0326 166.691C62.6049 166.691 61.4476 166.985 61.4476 167.348C61.4476 167.711 62.6049 168.005 64.0326 168.005Z" fill="#E6F6F4"/>
<path d="M115.521 160.396L113.466 151.875L111.411 160.396V206.179H115.543V160.396H115.521Z" fill="#E6F6F4"/>
<path d="M110.881 160.566C110.881 160.926 112.046 161.223 113.466 161.223C114.886 161.223 116.051 160.926 116.051 160.566C116.051 160.205 114.886 159.908 113.466 159.908C112.046 159.908 110.881 160.205 110.881 160.566Z" fill="#E6F6F4"/>
<path d="M110.881 167.348C110.881 167.709 112.046 168.005 113.466 168.005C114.886 168.005 116.051 167.709 116.051 167.348C116.051 166.988 114.886 166.691 113.466 166.691C112.046 166.691 110.881 166.988 110.881 167.348Z" fill="#E6F6F4"/>
<path d="M75.856 169.828L73.8007 161.307L71.7454 169.828V215.611H75.8772V169.828H75.856Z" fill="#E6F6F4"/>
<path d="M71.1944 169.976C71.1944 170.337 72.3598 170.633 73.7794 170.633C75.1991 170.633 76.3645 170.337 76.3645 169.976C76.3645 169.616 75.1991 169.319 73.7794 169.319C72.3598 169.319 71.1944 169.616 71.1944 169.976Z" fill="#E6F6F4"/>
<path d="M71.1944 176.78C71.1944 177.141 72.3598 177.437 73.7794 177.437C75.1991 177.437 76.3645 177.141 76.3645 176.78C76.3645 176.42 75.1991 176.123 73.7794 176.123C72.3598 176.123 71.1944 176.42 71.1944 176.78Z" fill="#E6F6F4"/>
<path d="M105.859 169.828L103.804 161.307L101.749 169.828V215.611H105.881V169.828H105.859Z" fill="#E6F6F4"/>
<path d="M101.219 169.976C101.219 170.337 102.384 170.633 103.804 170.633C105.224 170.633 106.389 170.337 106.389 169.976C106.389 169.616 105.224 169.319 103.804 169.319C102.384 169.319 101.219 169.616 101.219 169.976Z" fill="#E6F6F4"/>
<path d="M101.219 176.78C101.219 177.141 102.384 177.437 103.804 177.437C105.224 177.437 106.389 177.141 106.389 176.78C106.389 176.42 105.224 176.123 103.804 176.123C102.384 176.123 101.219 176.42 101.219 176.78Z" fill="#E6F6F4"/>
<path d="M416 205.055H0V221.058H416V205.055Z" fill="#E6F6F4"/>
<path d="M311.242 177.353H263.229V208.383H311.242V177.353Z" fill="#E6F6F4"/>
<path d="M256.936 177.353H215.999V208.383H256.936V177.353Z" fill="#E6F6F4"/>
<path d="M284.333 150.9H263.229V181.931H284.333V150.9Z" fill="#E6F6F4"/>
<path d="M352.095 205.988H385.764V124.194L352.095 137.674V205.988Z" fill="#E6F6F4"/>
<path d="M407.207 174.83H387.12V205.967H407.207V174.83Z" fill="#E6F6F4"/>
<path d="M125.268 205.988H141.308V190.812C141.308 182.312 136.392 174.576 128.701 170.973L125.268 169.362V206.009V205.988Z" fill="#E6F6F4"/>
<path d="M311.264 185.916H291.177V166.903C291.177 156.263 297.321 146.577 306.962 142.062L311.264 140.048V185.916Z" fill="#E6F6F4"/>
<path d="M362.138 185.259H307.047V205.988H362.138V185.259Z" fill="#E6F6F4"/>
<path d="M152.136 185.259H103.783V205.988H152.136V185.259Z" fill="#E6F6F4"/>
<path d="M106.368 192.083H51.2769V209.019H106.368V192.083Z" fill="#E6F6F4"/>
<path d="M215.978 178.646H231.827V166.628L215.978 162.643V178.646Z" fill="#E6F6F4"/>
<path d="M88.5481 206.2C98.1205 206.2 105.881 201.512 105.881 195.729C105.881 189.946 98.1205 185.259 88.5481 185.259C78.9756 185.259 71.2156 189.946 71.2156 195.729C71.2156 201.512 78.9756 206.2 88.5481 206.2Z" fill="#E6F6F4"/>
<path d="M285.922 168.344H265.496V170.019H285.922V168.344Z" fill="#E6F6F4"/>
<path d="M285.922 171.248H265.496V172.923H285.922V171.248Z" fill="#E6F6F4"/>
<path d="M285.922 174.152H265.496V175.827H285.922V174.152Z" fill="#E6F6F4"/>
<path d="M285.922 159.569H265.496V161.244H285.922V159.569Z" fill="#E6F6F4"/>
<path d="M285.922 162.473H265.496V164.148H285.922V162.473Z" fill="#E6F6F4"/>
<path d="M285.922 165.377H265.496V167.051H285.922V165.377Z" fill="#E6F6F4"/>
<path d="M285.922 150.9H265.496V152.575H285.922V150.9Z" fill="#E6F6F4"/>
<path d="M285.922 153.804H265.496V155.479H285.922V153.804Z" fill="#E6F6F4"/>
<path d="M285.922 156.708H265.496V158.382H285.922V156.708Z" fill="#E6F6F4"/>
<path d="M387.565 138.353H353.006V141.299H387.565V138.353Z" fill="#E6F6F4"/>
<path d="M387.565 143.376H353.006V146.322H387.565V143.376Z" fill="#E6F6F4"/>
<path d="M387.565 148.42H353.006V151.367H387.565V148.42Z" fill="#E6F6F4"/>
<path d="M387.565 153.465H353.006V156.411H387.565V153.465Z" fill="#E6F6F4"/>
<path d="M387.565 158.51H353.006V161.456H387.565V158.51Z" fill="#E6F6F4"/>
<path d="M387.565 163.554H353.006V166.5H387.565V163.554Z" fill="#E6F6F4"/>
<path d="M224.686 167.751H225.915L225.301 140.027L224.686 167.751Z" fill="#E6F6F4"/>
<path d="M277.807 152.193H279.057L278.421 124.491L277.807 152.193Z" fill="#E6F6F4"/>
<path d="M377.733 128.878H378.983L378.347 101.176L377.733 128.878Z" fill="#E6F6F4"/>
<path d="M87.9124 186.679H89.1626L88.5481 177.713L87.9124 186.679Z" fill="#E6F6F4"/>
<path d="M127.98 202.257H129.209L128.595 156.835L127.98 202.257Z" fill="#E6F6F4"/>
<path d="M274.48 152.193H275.73L275.116 124.491L274.48 152.193Z" fill="#E6F6F4"/>
<path d="M344.022 142.634L339.127 191.532L344.53 125.36L346.352 64.0195L325.439 61.4548L314.4 64.0195L316.963 115.461L316.773 122.074L324.549 67.7923L316.519 131.803L314.4 211.626H346.352L343.789 150.752L344.022 142.634Z" fill="#E6F6F4"/>
<path d="M325.036 65.7577H326.287L325.651 54.3333L325.036 65.7577Z" fill="#E6F6F4"/>
<path d="M333.957 69.8696H335.186L334.571 58.4663L333.957 69.8696Z" fill="#E6F6F4"/>
<path d="M343.767 67.7076H345.017L344.403 56.2832L343.767 67.7076Z" fill="#E6F6F4"/>
<path d="M315.078 66.3934H316.328L315.713 54.969L315.078 66.3934Z" fill="#E6F6F4"/>
</g>
<defs>
<clipPath id="clip0_0_920">
<rect width="416" height="220.117" fill="white" transform="translate(0 0.941406)"/>
</clipPath>
</defs>
</svg>
