<svg width="225" height="231" viewBox="0 0 225 231" fill="none" xmlns="http://www.w3.org/2000/svg">
<g opacity="0.2">
<path d="M74.4679 -20.8086L56.0424 -6.58385C52.7269 -4.03167 52.1052 0.724044 54.6304 4.04589C57.1555 7.36773 61.8843 7.97259 65.1998 5.42042L98.0896 -19.9634C101.405 -22.5155 106.129 -21.8969 108.659 -18.5889L113.638 -12.0481C116.163 -8.72623 115.528 -3.97539 112.226 -1.41835L107.844 1.96224C104.529 4.5144 103.907 9.27013 106.432 12.592C108.957 15.9138 113.686 16.5187 117.002 13.9665L129.32 4.45939C132.635 1.90722 137.359 2.52579 139.889 5.83389L144.868 12.3747C147.393 15.6965 146.758 20.4473 143.456 23.0044L51.0674 94.2984C47.7519 96.8506 47.1303 101.606 49.6554 104.928C52.1805 108.25 56.9093 108.855 60.2248 106.303L144.691 41.1401C148.007 38.5879 152.731 39.2065 155.261 42.5146L160.24 49.0553C162.765 52.3772 162.13 57.1281 158.828 59.6851L87.0109 115.102C83.6954 117.655 83.0738 122.41 85.5989 125.732C88.124 129.054 92.8528 129.659 96.1683 127.107L153.521 82.8484C156.836 80.2962 161.56 80.9148 164.09 84.2229L169.069 90.7637C171.595 94.0855 170.959 98.8364 167.657 101.393L50.0624 192.134C46.7469 194.686 42.0231 194.067 39.493 190.759L34.5138 184.218C31.9887 180.897 32.624 176.146 35.9258 173.589L40.3077 170.208C43.6232 167.656 44.2448 162.9 41.7197 159.578C39.1946 156.256 34.4658 155.652 31.1503 158.204L12.3041 172.743C8.98864 175.296 4.26478 174.677 1.73473 171.369L-3.2445 164.828C-5.76964 161.506 -5.13431 156.755 -1.83249 154.198L4.35926 149.418C7.67475 146.866 8.29641 142.11 5.77127 138.788C3.24614 135.466 -1.48263 134.861 -4.79811 137.414L-18.9259 148.321C-22.2414 150.873 -26.9653 150.254 -29.4953 146.946L-34.4745 140.405C-36.9997 137.084 -36.3643 132.333 -33.0625 129.776L61.1499 57.0864C64.4653 54.5343 65.087 49.7785 62.5619 46.4567C60.0367 43.1348 55.308 42.53 51.9925 45.0822L-34.2887 111.659C-37.6042 114.211 -42.3281 113.592 -44.8581 110.284L-49.8373 103.743C-52.3625 100.421 -51.7272 95.6706 -48.4253 93.1135L9.34789 48.5404C12.6634 45.9882 13.285 41.2325 10.7599 37.9106C8.23476 34.5888 3.50601 33.9839 0.190522 36.5361L-43.1184 69.9502C-46.4338 72.5024 -51.1577 71.8838 -53.6878 68.5757L-58.667 62.035C-61.1921 58.7131 -60.5568 53.9623 -57.255 51.4052L60.3401 -39.335C63.6556 -41.8872 68.3794 -41.2686 70.9095 -37.9605L75.8887 -31.4197C78.4138 -28.0979 77.7785 -23.347 74.4767 -20.79L74.4816 -20.8037L74.4679 -20.8086Z" fill="#E6F6F4"/>
<path d="M146.985 142.761C135.816 141.296 125.18 146.876 119.593 150.524C117.256 152.061 116.827 155.288 118.674 157.36C123.108 162.325 131.916 170.436 143.09 171.887C154.258 173.352 164.895 167.772 170.482 164.124C172.818 162.587 173.248 159.36 171.4 157.288C166.967 152.323 158.159 144.212 146.985 142.761Z" fill="#E6F6F4"/>
<path d="M100.955 173.79C100.152 179.83 102.509 185.604 104.646 189.408C106.113 192.026 109.661 192.488 111.769 190.341C114.827 187.216 118.622 182.246 119.425 176.206C120.228 170.166 117.871 164.392 115.734 160.588C114.267 157.97 110.719 157.509 108.612 159.655C105.553 162.78 101.759 167.751 100.955 173.79Z" fill="#E6F6F4"/>
</g>
</svg>
