<svg width="237" height="211" viewBox="0 0 237 211" fill="none" xmlns="http://www.w3.org/2000/svg">
<g opacity="0.15">
<path d="M253.68 169.483L230.253 183.346C226.045 185.843 220.442 184.722 217.718 180.865C214.995 177.007 216.217 171.869 220.424 169.371L262.234 144.624C266.441 142.127 267.645 136.989 264.939 133.131L259.58 125.528C256.857 121.67 251.253 120.565 247.046 123.047L241.477 126.344C237.27 128.841 231.667 127.721 228.943 123.863C226.22 120.005 227.442 114.867 231.649 112.37L247.308 103.102C251.515 100.604 252.72 95.4661 250.014 91.6084L244.655 84.005C241.931 80.1472 236.328 79.0427 232.12 81.5239L114.688 151.043C110.48 153.54 104.877 152.42 102.153 148.562C99.4302 144.704 100.652 139.566 104.859 137.069L212.202 73.5042C216.409 71.0071 217.614 65.8688 214.908 62.0111L209.549 54.4077C206.825 50.5499 201.222 49.4454 197.015 51.9265L105.732 105.967C101.525 108.464 95.9213 107.343 93.198 103.486C90.4748 99.628 91.6967 94.4897 95.9039 91.9926L168.804 48.8371C173.011 46.34 174.216 41.2017 171.51 37.344L166.151 29.7405C163.427 25.8828 157.824 24.7783 153.617 27.2594L4.15012 115.747C-0.0570003 118.244 -1.26151 123.383 1.44432 127.24L6.80359 134.844C9.52687 138.702 15.1306 139.806 19.3377 137.325L24.9064 134.028C29.1136 131.53 34.7173 132.651 37.4405 136.509C40.1638 140.366 38.9418 145.505 34.7347 148.002L10.7838 162.184C6.57665 164.681 5.37211 169.82 8.07794 173.677L13.4372 181.281C16.1605 185.139 21.7642 186.243 25.9713 183.762L33.8444 179.104C38.0515 176.607 43.6552 177.727 46.3785 181.585C49.1018 185.443 47.8798 190.581 43.6727 193.078L25.7095 203.707C21.5023 206.204 20.2978 211.342 23.0036 215.2L28.3629 222.803C31.0862 226.661 36.6899 227.766 40.897 225.285L160.634 154.389C164.841 151.892 170.445 153.012 173.168 156.87C175.892 160.728 174.67 165.866 170.462 168.363L60.7979 233.288C56.5908 235.785 55.3863 240.924 58.0921 244.781L63.4514 252.385C66.1747 256.243 71.7784 257.347 75.9855 254.866L149.409 211.39C153.617 208.893 159.22 210.014 161.943 213.871C164.667 217.729 163.445 222.868 159.238 225.365L104.196 257.955C99.9888 260.452 98.7843 265.591 101.49 269.449L106.849 277.052C109.573 280.91 115.176 282.014 119.383 279.533L268.85 191.045C273.057 188.548 274.262 183.41 271.556 179.552L266.196 171.949C263.473 168.091 257.869 166.986 253.662 169.467H253.68V169.483Z" fill="#D9EBCA"/>
<path d="M98.7379 33.3742C95.8924 45.5237 85.331 54.5037 78.9766 58.9537C76.3057 60.8106 72.5001 60.0582 70.9115 57.369C67.1059 50.9181 61.5197 38.7526 64.3826 26.6032C67.2281 14.4537 77.7896 5.47366 84.1439 1.02366C86.8148 -0.833178 90.6204 -0.0808393 92.209 2.60837C96.0146 9.05928 101.601 21.2248 98.7379 33.3742Z" fill="#D9EBCA"/>
<path d="M45.2787 69.6791C38.1563 68.2705 32.605 63.6764 29.1834 60.0428C26.8267 57.5457 27.7345 53.6879 30.9989 52.2953C35.7472 50.2784 42.8697 48.1815 49.9921 49.5901C57.1145 50.9987 62.6659 55.5928 66.0874 59.2264C68.4441 61.7236 67.5363 65.5813 64.2719 66.9739C59.5236 68.9908 52.4012 71.0878 45.2787 69.6791Z" fill="#D9EBCA"/>
</g>
</svg>
