<svg width="87" height="59" viewBox="0 0 87 59" fill="none" xmlns="http://www.w3.org/2000/svg">
<path d="M56.6177 21.1039L53.925 22.8301C53.4415 23.141 52.7974 23.0015 52.4844 22.5211C52.1713 22.0408 52.3118 21.4009 52.7954 21.09L57.6009 18.0085C58.0845 17.6976 58.2229 17.0578 57.9119 16.5774L57.2959 15.6306C56.9829 15.1503 56.3388 15.0127 55.8553 15.3217L55.2152 15.7323C54.7316 16.0432 54.0875 15.9037 53.7745 15.4233C53.4615 14.943 53.602 14.3032 54.0855 13.9922L55.8854 12.8382C56.3689 12.5272 56.5074 11.8874 56.1964 11.407L55.5804 10.4603C55.2674 9.97992 54.6233 9.84239 54.1397 10.1513L40.6421 18.8078C40.1585 19.1187 39.5144 18.9792 39.2014 18.4988C38.8884 18.0185 39.0288 17.3787 39.5124 17.0677L51.8503 9.15274C52.3339 8.84181 52.4723 8.20199 52.1613 7.72163L51.5453 6.77486C51.2323 6.2945 50.5882 6.15697 50.1047 6.46592L39.6127 13.1949C39.1292 13.5059 38.4851 13.3664 38.1721 12.886C37.8591 12.4056 37.9995 11.7658 38.4831 11.4549L46.8622 6.08123C47.3457 5.77029 47.4842 5.13047 47.1732 4.65011L46.5572 3.70335C46.2442 3.22299 45.6001 3.08546 45.1165 3.3944L27.937 14.4128C27.4534 14.7237 27.315 15.3635 27.626 15.8439L28.242 16.7907C28.555 17.271 29.1991 17.4086 29.6826 17.0996L30.3227 16.689C30.8063 16.3781 31.4503 16.5176 31.7633 16.998C32.0764 17.4783 31.9359 18.1181 31.4523 18.4291L28.6994 20.1951C28.2159 20.506 28.0774 21.1458 28.3884 21.6262L29.0044 22.5729C29.3174 23.0533 29.9615 23.1908 30.4451 22.8819L31.35 22.3019C31.8336 21.9909 32.4777 22.1304 32.7907 22.6108C33.1037 23.0912 32.9632 23.731 32.4797 24.0419L30.415 25.3654C29.9314 25.6763 29.793 26.3162 30.104 26.7965L30.72 27.7433C31.033 28.2236 31.6771 28.3612 32.1606 28.0522L45.9231 19.2244C46.4067 18.9134 47.0508 19.053 47.3638 19.5333C47.6768 20.0137 47.5364 20.6535 47.0528 20.9644L34.448 29.0488C33.9645 29.3598 33.826 29.9996 34.137 30.4799L34.753 31.4267C35.066 31.9071 35.7101 32.0446 36.1937 31.7357L44.633 26.3221C45.1165 26.0112 45.7606 26.1507 46.0736 26.6311C46.3866 27.1114 46.2462 27.7513 45.7626 28.0622L39.4362 32.1203C38.9526 32.4313 38.8142 33.0711 39.1252 33.5515L39.7411 34.4982C40.0542 34.9786 40.6982 35.1161 41.1818 34.8072L58.3614 23.7888C58.8449 23.4778 58.9834 22.838 58.6724 22.3577L58.0564 21.4109C57.7434 20.9305 57.0993 20.793 56.6157 21.102H56.6177V21.1039Z" fill="#D9C34C"/>
<path d="M38.8088 4.15571C38.4817 5.66855 37.2678 6.78673 36.5374 7.34084C36.2304 7.57205 35.793 7.47837 35.6104 7.14351C35.173 6.34026 34.5309 4.82543 34.86 3.31259C35.1871 1.79976 36.401 0.681573 37.1313 0.127465C37.4383 -0.103746 37.8757 -0.010066 38.0583 0.324791C38.4958 1.12805 39.1378 2.64288 38.8088 4.15571Z" fill="#168B70"/>
<path d="M32.6641 8.67633C31.8454 8.50093 31.2074 7.92888 30.8141 7.47642C30.5432 7.16549 30.6476 6.68513 31.0228 6.51172C31.5685 6.26058 32.3872 5.99947 33.2058 6.17487C34.0245 6.35027 34.6625 6.92232 35.0558 7.37477C35.3267 7.68571 35.2223 8.16607 34.8471 8.33948C34.3014 8.59062 33.4827 8.85173 32.6641 8.67633Z" fill="#168B70"/>
<path d="M5.40949 45.2948C5.35732 45.2948 5.31118 45.2828 5.26703 45.2569C5.22289 45.231 5.17473 45.1971 5.11855 45.1532L5.10651 45.1473C5.03227 45.0735 4.93596 44.9918 4.81758 44.9001C4.6992 44.8104 4.56677 44.7267 4.4223 44.647C4.27583 44.5692 4.11932 44.5015 3.95278 44.4477C3.78424 44.3938 3.61569 44.3659 3.44113 44.3659C3.22041 44.3659 3.02578 44.3899 2.85523 44.4397C2.68669 44.4895 2.54423 44.5553 2.42986 44.639C2.31549 44.7227 2.22921 44.8224 2.16901 44.936C2.11083 45.0496 2.08073 45.1712 2.08073 45.3007C2.08073 45.4423 2.12487 45.5658 2.21316 45.6715C2.30144 45.7771 2.42183 45.8708 2.57433 45.9525C2.72682 46.0342 2.90138 46.11 3.09802 46.1778C3.29465 46.2455 3.50132 46.3133 3.71802 46.3811C3.96683 46.4548 4.21162 46.5365 4.45641 46.6222C4.7012 46.7079 4.93396 46.8056 5.15668 46.9132C5.3794 47.0209 5.58807 47.1405 5.78069 47.272C5.97332 47.4036 6.13986 47.5531 6.28031 47.7245C6.42076 47.8959 6.53112 48.0852 6.61138 48.2945C6.69164 48.5038 6.73177 48.739 6.73177 49.0021C6.73177 49.4287 6.64549 49.8153 6.47093 50.1582C6.29636 50.501 6.05759 50.798 5.7526 51.0411C5.44762 51.2863 5.08846 51.4737 4.67712 51.6052C4.26579 51.7368 3.82236 51.8026 3.35084 51.8026C3.04786 51.8026 2.74688 51.7667 2.44591 51.6969C2.14694 51.6272 1.85801 51.5275 1.58312 51.3979C1.30823 51.2684 1.04538 51.1129 0.800589 50.9315C0.553791 50.7501 0.335084 50.5448 0.142461 50.3176V50.3236L0.130422 50.2997C0.0441427 50.202 0 50.1123 0 50.0286C0 49.9848 0.0120389 49.9449 0.0361168 49.905C0.0601947 49.8652 0.094305 49.8233 0.142461 49.7755L0.33709 49.5821C0.395278 49.5323 0.459486 49.4745 0.5257 49.4127C0.591914 49.3509 0.660135 49.2931 0.726349 49.2433C0.792563 49.1915 0.854764 49.1496 0.912952 49.1137C0.969134 49.0779 1.01729 49.0619 1.0514 49.0619C1.10558 49.0619 1.15774 49.0798 1.2059 49.1137C1.25406 49.1496 1.29218 49.1815 1.32428 49.2134L1.34836 49.2373H1.34234C1.48079 49.3669 1.63529 49.4904 1.80584 49.608C1.97639 49.7256 2.15296 49.8293 2.33555 49.923C2.51614 50.0147 2.69672 50.0864 2.8773 50.1402C3.05588 50.194 3.22443 50.22 3.38294 50.22C3.59964 50.22 3.8023 50.192 3.99091 50.1382C4.17952 50.0844 4.34405 50.0067 4.4825 49.907C4.62094 49.8074 4.72929 49.6878 4.80755 49.5463C4.8858 49.4047 4.92593 49.2493 4.92593 49.0759C4.92593 48.9024 4.87376 48.7569 4.77143 48.6334C4.6691 48.5098 4.53466 48.4022 4.37013 48.3105C4.2056 48.2188 4.019 48.1391 3.81233 48.0733C3.60566 48.0075 3.39699 47.9437 3.18831 47.8859C2.70675 47.7404 2.2874 47.5849 1.92623 47.4155C1.56506 47.2461 1.26609 47.0587 1.02532 46.8495C0.784537 46.6402 0.603953 46.405 0.483564 46.1439C0.363174 45.8828 0.30298 45.5918 0.30298 45.2669C0.30298 44.9021 0.37722 44.5712 0.523694 44.2723C0.672174 43.9733 0.880849 43.7162 1.15373 43.5029C1.42661 43.2896 1.75166 43.1242 2.1349 43.0046C2.51614 42.885 2.94553 42.8252 3.41705 42.8252C3.77621 42.8252 4.13939 42.881 4.51059 42.9926C4.88179 43.1042 5.22289 43.2577 5.53992 43.4531C5.63422 43.5109 5.73053 43.5786 5.82885 43.6524C5.92717 43.7261 6.01746 43.8019 6.09973 43.8776C6.18199 43.9533 6.25021 44.0291 6.30439 44.1008C6.35856 44.1726 6.38465 44.2344 6.38465 44.2862C6.38465 44.334 6.37261 44.3819 6.34853 44.4297C6.32445 44.4795 6.29636 44.5234 6.26024 44.5613L6.08367 44.7486V44.7427C6.02549 44.8044 5.96328 44.8702 5.90108 44.936C5.83888 45.0018 5.77467 45.0616 5.71247 45.1154C5.65027 45.1672 5.59208 45.213 5.54192 45.2469C5.48975 45.2828 5.44762 45.2988 5.4115 45.2988V45.2948H5.40949Z" fill="#3A3937"/>
<path d="M7.49618 44.7064C7.48816 44.6745 7.48214 44.6466 7.47612 44.6246C7.4701 44.6007 7.46609 44.5768 7.46207 44.5489C7.45806 44.521 7.45605 44.4991 7.45605 44.4791C7.45605 44.4054 7.48214 44.3456 7.53631 44.2997C7.59049 44.2539 7.66874 44.232 7.77509 44.232H8.83853C9.02312 44.232 9.14752 44.3217 9.21173 44.5011C9.28196 44.7044 9.36824 44.9455 9.46856 45.2226C9.56889 45.5016 9.67523 45.7946 9.78759 46.1036C9.89996 46.4125 10.0143 46.7255 10.1327 47.0404C10.2511 47.3553 10.3615 47.6523 10.4658 47.9333C10.5701 48.2144 10.6644 48.4635 10.7487 48.6848C10.833 48.906 10.8992 49.0734 10.9473 49.1871C11.1239 48.6908 11.3506 48.0549 11.6275 47.2796C11.9024 46.5042 12.2395 45.5774 12.6388 44.4971C12.6749 44.4034 12.7231 44.3356 12.7833 44.2938C12.8435 44.2519 12.9217 44.232 13.016 44.232H14.0454C14.1678 44.232 14.252 44.2519 14.2962 44.2898C14.3423 44.3296 14.3644 44.3795 14.3644 44.4433C14.3644 44.4751 14.3604 44.513 14.3503 44.5609C14.3403 44.6087 14.3323 44.6426 14.3243 44.6665L13.7103 46.1514C13.7885 46.3468 13.8808 46.566 13.9852 46.8052C14.0895 47.0464 14.1999 47.2975 14.3162 47.5626C14.4326 47.8277 14.549 48.0968 14.6654 48.3698C14.7817 48.6429 14.8901 48.91 14.9924 49.1691C15.0627 48.9818 15.1469 48.7645 15.2432 48.5173C15.3395 48.2702 15.4399 48.0091 15.5442 47.73C15.6485 47.453 15.7569 47.166 15.8693 46.873C15.9816 46.58 16.092 46.2909 16.2003 46.0079C16.3087 45.7249 16.413 45.4538 16.5113 45.1947C16.6097 44.9356 16.6979 44.7044 16.7782 44.4951C16.8143 44.4014 16.8585 44.3336 16.9146 44.2918C16.9708 44.2499 17.0431 44.23 17.1333 44.23H18.1145C18.2289 44.23 18.3152 44.2459 18.3754 44.2798C18.4336 44.3137 18.4637 44.3715 18.4637 44.4532C18.4637 44.4811 18.4596 44.517 18.4516 44.5648C18.4436 44.6127 18.4356 44.6446 18.4275 44.6645L15.6385 51.4513C15.6225 51.4792 15.6064 51.5051 15.5884 51.5331C15.5703 51.561 15.5462 51.5849 15.5181 51.6088C15.488 51.6327 15.4519 51.6507 15.4058 51.6646C15.3596 51.6786 15.3054 51.6845 15.2432 51.6845H14.7356C14.5971 51.6845 14.5028 51.6586 14.4527 51.6088C14.4025 51.559 14.3604 51.5032 14.3283 51.4453C14.0955 50.8853 13.8648 50.3312 13.636 49.781C13.4073 49.2309 13.1786 48.6768 12.9498 48.1167L11.5914 51.4513C11.5593 51.5051 11.5212 51.559 11.4771 51.6108C11.4309 51.6606 11.3486 51.6865 11.2262 51.6865H10.6825C10.54 51.6865 10.4457 51.6626 10.3956 51.6128C10.3454 51.5649 10.3093 51.5111 10.2872 51.4513L7.50421 44.7044H7.49618V44.7064Z" fill="#3A3937"/>
<path d="M25.6222 50.8657C25.2751 51.1587 24.8959 51.3899 24.4845 51.5593C24.0732 51.7267 23.6197 51.8124 23.1281 51.8124C22.5964 51.8124 22.0908 51.7128 21.6152 51.5135C21.1377 51.3141 20.7203 51.0391 20.3632 50.6923C20.004 50.3434 19.7191 49.9368 19.5084 49.4684C19.2978 49 19.1914 48.4977 19.1914 47.9576C19.1914 47.6088 19.2355 47.2719 19.3218 46.947C19.4081 46.6221 19.5325 46.3172 19.691 46.0342C19.8515 45.7511 20.0442 45.49 20.2729 45.2528C20.5016 45.0156 20.7565 44.8143 21.0374 44.6449C21.3183 44.4775 21.6253 44.3459 21.9543 44.2542C22.2834 44.1625 22.6305 44.1167 22.9977 44.1167C23.2967 44.1167 23.5916 44.1526 23.8846 44.2243C24.1775 44.2961 24.4524 44.3997 24.7153 44.5333C24.9781 44.6668 25.2229 44.8283 25.4516 45.0176C25.6804 45.207 25.881 45.4222 26.0536 45.6614C26.2904 45.9903 26.4629 46.3451 26.5733 46.7238C26.6836 47.1025 26.7378 47.5251 26.7378 47.9855C26.7378 48.0991 26.7338 48.1948 26.7238 48.2705C26.7137 48.3463 26.6897 48.408 26.6495 48.4559C26.6094 48.5037 26.5512 48.5376 26.473 48.5575C26.3947 48.5795 26.2843 48.5894 26.1419 48.5894H20.8989C20.9511 48.8705 21.0474 49.1216 21.1919 49.3389C21.3363 49.5561 21.5069 49.7395 21.7035 49.891C21.9002 50.0425 22.1149 50.1561 22.3476 50.2318C22.5804 50.3076 22.8131 50.3474 23.0459 50.3474C23.2224 50.3474 23.393 50.3295 23.5575 50.2956C23.7201 50.2597 23.8745 50.2139 24.015 50.1541C24.1575 50.0943 24.2879 50.0285 24.4083 49.9508C24.5287 49.875 24.633 49.7953 24.7253 49.7136C24.7253 49.7096 24.7273 49.7076 24.7313 49.7076C24.7795 49.6638 24.8236 49.6299 24.8678 49.604C24.9119 49.5781 24.956 49.5661 25.0042 49.5661C25.0403 49.5661 25.0804 49.5781 25.1246 49.602C25.1707 49.6259 25.2149 49.6638 25.257 49.7196C25.3634 49.8491 25.4537 49.9568 25.5279 50.0425C25.6021 50.1282 25.6643 50.2019 25.7105 50.2597C25.7566 50.3175 25.7928 50.3694 25.8148 50.4132C25.8369 50.4571 25.8469 50.4989 25.8469 50.5428C25.8469 50.6524 25.7727 50.762 25.6222 50.8716V50.8657ZM22.9977 45.5697C22.765 45.5697 22.5382 45.6116 22.3175 45.6953C22.0968 45.779 21.8941 45.8946 21.7116 46.0381C21.529 46.1836 21.3684 46.3531 21.232 46.5484C21.0956 46.7437 20.9972 46.955 20.933 47.1822H25.1186C25.0564 46.943 24.9601 46.7258 24.8316 46.5285C24.7032 46.3311 24.5487 46.1597 24.3681 46.0182C24.1876 45.8747 23.9809 45.7651 23.7481 45.6873C23.5154 45.6096 23.2646 45.5697 22.9977 45.5697Z" fill="#3A3937"/>
<path d="M34.2824 50.8657C33.9352 51.1587 33.556 51.3899 33.1447 51.5593C32.7333 51.7267 32.2799 51.8124 31.7883 51.8124C31.2566 51.8124 30.7509 51.7128 30.2754 51.5135C29.7979 51.3141 29.3805 51.0391 29.0234 50.6923C28.6642 50.3434 28.3793 49.9368 28.1686 49.4684C27.9579 49 27.8516 48.4977 27.8516 47.9576C27.8516 47.6088 27.8957 47.2719 27.982 46.947C28.0683 46.6221 28.1927 46.3172 28.3512 46.0342C28.5117 45.7511 28.7043 45.49 28.9331 45.2528C29.1618 45.0156 29.4166 44.8143 29.6975 44.6449C29.9784 44.4775 30.2854 44.3459 30.6145 44.2542C30.9436 44.1625 31.2907 44.1167 31.6579 44.1167C31.9568 44.1167 32.2518 44.1526 32.5447 44.2243C32.8377 44.2961 33.1126 44.3997 33.3754 44.5333C33.6383 44.6668 33.8831 44.8283 34.1118 45.0176C34.3405 45.207 34.5412 45.4222 34.7138 45.6614C34.9505 45.9903 35.1231 46.3451 35.2334 46.7238C35.3438 47.1025 35.398 47.5251 35.398 47.9855C35.398 48.0991 35.394 48.1948 35.3839 48.2705C35.3739 48.3463 35.3498 48.408 35.3097 48.4559C35.2695 48.5037 35.2114 48.5376 35.1331 48.5575C35.0549 48.5795 34.9445 48.5894 34.802 48.5894H29.5591C29.6113 48.8705 29.7076 49.1216 29.852 49.3389C29.9965 49.5561 30.1671 49.7395 30.3637 49.891C30.5603 50.0425 30.775 50.1561 31.0078 50.2318C31.2405 50.3076 31.4733 50.3474 31.706 50.3474C31.8826 50.3474 32.0532 50.3295 32.2177 50.2956C32.3802 50.2597 32.5347 50.2139 32.6752 50.1541C32.8176 50.0943 32.948 50.0285 33.0684 49.9508C33.1888 49.875 33.2932 49.7953 33.3855 49.7136C33.3855 49.7096 33.3855 49.7076 33.3915 49.7076C33.4396 49.6638 33.4838 49.6299 33.5279 49.604C33.5721 49.5781 33.6162 49.5661 33.6644 49.5661C33.7005 49.5661 33.7406 49.5781 33.7847 49.602C33.8309 49.6259 33.875 49.6638 33.9172 49.7196C34.0235 49.8491 34.1138 49.9568 34.1881 50.0425C34.2623 50.1282 34.3245 50.2019 34.3706 50.2597C34.4168 50.3175 34.4529 50.3694 34.475 50.4132C34.4971 50.4571 34.5071 50.4989 34.5071 50.5428C34.5071 50.6524 34.4328 50.762 34.2824 50.8716V50.8657ZM31.6579 45.5697C31.4251 45.5697 31.1984 45.6116 30.9777 45.6953C30.757 45.779 30.5543 45.8946 30.3717 46.0381C30.1891 46.1836 30.0286 46.3531 29.8922 46.5484C29.7557 46.7437 29.6574 46.955 29.5932 47.1822H33.7787C33.7165 46.943 33.6202 46.7258 33.4918 46.5285C33.3634 46.3311 33.2089 46.1597 33.0283 46.0182C32.8477 45.8747 32.6411 45.7651 32.4083 45.6873C32.1755 45.6096 31.9247 45.5697 31.6579 45.5697Z" fill="#3A3937"/>
<path d="M39.5011 51.6888C39.1901 51.6848 38.8971 51.6369 38.6243 51.5472C38.3494 51.4576 38.1126 51.326 37.91 51.1566C37.7073 50.9872 37.5468 50.7759 37.4284 50.5287C37.31 50.2796 37.2518 49.9965 37.2518 49.6796V45.7132H36.5716C36.4573 45.7132 36.371 45.6873 36.3148 45.6374C36.2566 45.5876 36.2285 45.5039 36.2285 45.3863V44.5451C36.2285 44.4315 36.2566 44.3518 36.3148 44.306C36.371 44.2601 36.4573 44.2362 36.5716 44.2362H37.2518C37.2518 44.0289 37.2518 43.8216 37.2518 43.6163C37.2518 43.411 37.2518 43.2037 37.2518 42.9964C37.2518 42.9187 37.2759 42.8569 37.3261 42.8111C37.3762 42.7652 37.4505 42.7254 37.5528 42.6915C37.619 42.6676 37.7013 42.6397 37.7956 42.6058C37.8899 42.5719 37.9882 42.54 38.0885 42.5081C38.1889 42.4762 38.2872 42.4503 38.3815 42.4284C38.4758 42.4065 38.554 42.3965 38.6182 42.3965C38.7406 42.3965 38.8209 42.4304 38.857 42.4961C38.8951 42.5619 38.9132 42.6516 38.9132 42.7612C38.9132 43.0084 38.9132 43.2536 38.9132 43.4987C38.9132 43.7439 38.9132 43.989 38.9132 44.2362H39.7639C39.8663 44.2362 39.9445 44.2621 40.0007 44.3159C40.0549 44.3678 40.083 44.4515 40.083 44.5651V45.3663C40.083 45.4899 40.0549 45.5816 40.0007 45.6354C39.9465 45.6892 39.8663 45.7172 39.7639 45.7172H38.9132V46.8313C38.9132 46.9669 38.9132 47.0925 38.9132 47.2101C38.9132 47.3277 38.9132 47.4552 38.9132 47.5927V48.7089C38.9132 48.7089 38.9132 48.7249 38.9132 48.7329C38.9132 48.7408 38.9132 48.7488 38.9132 48.7568V49.5261C38.9132 49.7853 38.9634 49.9706 39.0677 50.0842C39.17 50.1979 39.3346 50.2557 39.5633 50.2557C39.6456 50.2557 39.7118 50.2856 39.7579 50.3434C39.8061 50.4032 39.8282 50.4729 39.8282 50.5546V51.3699C39.8282 51.4715 39.8001 51.5512 39.7419 51.607C39.6837 51.6648 39.6054 51.6928 39.5031 51.6928V51.6888H39.5011Z" fill="#3A3937"/>
<path d="M46.3035 49.7333C46.3697 49.6895 46.4259 49.6636 46.472 49.6536C46.5182 49.6436 46.5563 49.6396 46.5864 49.6396C46.6526 49.6436 46.7108 49.6795 46.757 49.7453L46.8994 49.9386L47.3188 50.5326C47.3388 50.5605 47.3549 50.5884 47.3669 50.6183C47.379 50.6482 47.385 50.6741 47.385 50.698C47.385 50.7618 47.3629 50.8156 47.3208 50.8655C47.2766 50.9153 47.2205 50.9651 47.1502 51.015C46.8151 51.2581 46.454 51.4535 46.0647 51.6009C45.6775 51.7504 45.2501 51.8242 44.7846 51.8242C44.4334 51.8242 44.0943 51.7783 43.7653 51.6867C43.4362 51.595 43.1292 51.4654 42.8423 51.3C42.5574 51.1345 42.2965 50.9332 42.0598 50.702C41.823 50.4688 41.6203 50.2097 41.4478 49.9247C41.2772 49.6396 41.1448 49.3307 41.0525 49.0018C40.9602 48.6729 40.9141 48.3301 40.9141 47.9753C40.9141 47.6205 40.9602 47.2757 41.0525 46.9488C41.1448 46.62 41.2772 46.313 41.4478 46.028C41.6183 45.7429 41.823 45.4838 42.0598 45.2506C42.2965 45.0174 42.5574 44.8181 42.8423 44.6527C43.1272 44.4872 43.4362 44.3577 43.7653 44.264C44.0943 44.1723 44.4334 44.1265 44.7846 44.1265C45.222 44.1265 45.6353 44.1922 46.0266 44.3258C46.4179 44.4593 46.763 44.6387 47.066 44.8659L47.0599 44.86C47.1141 44.9138 47.1683 44.9636 47.2225 45.0035C47.2766 45.0453 47.3027 45.1091 47.3027 45.1948C47.3027 45.2187 47.3027 45.2466 47.3027 45.2765C47.3027 45.3084 47.2907 45.3383 47.2706 45.3642L46.785 46.0977C46.7068 46.2153 46.6205 46.2731 46.5242 46.2731C46.458 46.2731 46.3817 46.2393 46.2995 46.1735C46.0988 46.006 45.8641 45.8685 45.5952 45.7629C45.3263 45.6572 45.0514 45.6034 44.7685 45.6034C44.4615 45.6034 44.1726 45.6672 43.9017 45.7948C43.6308 45.9223 43.3941 46.0938 43.1894 46.311C42.9848 46.5283 42.8222 46.7814 42.7039 47.0684C42.5855 47.3554 42.5273 47.6584 42.5273 47.9753C42.5273 48.2922 42.5855 48.6052 42.7039 48.8922C42.8222 49.1792 42.9828 49.4264 43.1854 49.6377C43.3881 49.8489 43.6248 50.0164 43.8977 50.1399C44.1706 50.2635 44.4595 50.3253 44.7665 50.3253C45.1016 50.3253 45.3905 50.2675 45.6353 50.1519C45.8801 50.0363 46.1028 49.8988 46.3035 49.7373V49.7333Z" fill="#3A3937"/>
<path d="M48.7676 43.2279C48.7676 43.1621 48.7896 43.1023 48.8358 43.0485C48.8799 42.9967 48.9421 42.9688 49.0224 42.9688H50.2002C50.2664 42.9688 50.3306 42.9947 50.3888 43.0445C50.447 43.0963 50.4771 43.1561 50.4771 43.2259V46.2675H54.4439V43.2259C54.4439 43.1561 54.468 43.0943 54.5142 43.0445C54.5603 42.9947 54.6245 42.9688 54.7028 42.9688H55.8625C55.9408 42.9688 56.009 42.9907 56.0652 43.0365C56.1214 43.0824 56.1515 43.1442 56.1515 43.2219V51.4299C56.1515 51.6013 56.0592 51.689 55.8746 51.689H54.7028C54.5302 51.689 54.4439 51.6033 54.4439 51.4299V47.878H50.4771V51.4299C50.4771 51.6013 50.3808 51.689 50.1882 51.689H49.0224C48.8539 51.689 48.7696 51.6093 48.7696 51.4478V43.2279H48.7676Z" fill="#168B70"/>
<path d="M57.6582 47.9716C57.6582 47.6148 57.7044 47.272 57.7967 46.9411C57.8889 46.6102 58.0194 46.3013 58.1899 46.0163C58.3605 45.7312 58.5611 45.4721 58.7979 45.2389C59.0347 45.0057 59.2955 44.8064 59.5824 44.639C59.8694 44.4735 60.1784 44.344 60.5074 44.2523C60.8365 44.1606 61.1796 44.1147 61.5388 44.1147C61.8979 44.1147 62.235 44.1606 62.5661 44.2523C62.8971 44.344 63.2041 44.4735 63.4911 44.639C63.776 44.8064 64.0368 45.0057 64.2736 45.2389C64.5104 45.4721 64.713 45.7312 64.8816 46.0163C65.0501 46.3013 65.1825 46.6102 65.2748 46.9411C65.3671 47.272 65.4133 47.6148 65.4133 47.9716C65.4133 48.3284 65.3671 48.6712 65.2748 48.9981C65.1825 49.327 65.0521 49.6339 64.8816 49.9169C64.713 50.2 64.5104 50.4611 64.2736 50.6943C64.0368 50.9295 63.776 51.1308 63.4911 51.2962C63.2061 51.4637 62.8971 51.5912 62.5661 51.6829C62.235 51.7746 61.8939 51.8204 61.5388 51.8204C61.1836 51.8204 60.8365 51.7746 60.5074 51.6829C60.1784 51.5912 59.8714 51.4617 59.5824 51.2962C59.2955 51.1308 59.0327 50.9295 58.7979 50.6943C58.5611 50.4591 58.3585 50.2 58.1899 49.9169C58.0214 49.6339 57.8889 49.327 57.7967 48.9981C57.7044 48.6692 57.6582 48.3264 57.6582 47.9716ZM59.3256 47.9716C59.3256 48.2845 59.3798 48.5815 59.4901 48.8605C59.6005 49.1396 59.755 49.3848 59.9516 49.5921C60.1483 49.7993 60.383 49.9648 60.6519 50.0844C60.9208 50.206 61.2157 50.2657 61.5347 50.2657C61.8538 50.2657 62.1347 50.204 62.4015 50.0844C62.6684 49.9648 62.8971 49.7993 63.0898 49.5921C63.2824 49.3848 63.4329 49.1416 63.5412 48.8605C63.6496 48.5815 63.7038 48.2845 63.7038 47.9716C63.7038 47.6586 63.6496 47.3676 63.5412 47.0846C63.4329 46.8036 63.2824 46.5564 63.0898 46.3411C62.8971 46.1259 62.6664 45.9585 62.4015 45.8309C62.1347 45.7033 61.8478 45.6395 61.5347 45.6395C61.2217 45.6395 60.9208 45.7033 60.6519 45.8309C60.381 45.9585 60.1483 46.1279 59.9516 46.3411C59.755 46.5544 59.6005 46.8016 59.4901 47.0846C59.3798 47.3657 59.3256 47.6626 59.3256 47.9716Z" fill="#168B70"/>
<path d="M66.9289 44.3042C67.0292 44.2563 67.1536 44.2304 67.3041 44.2304H67.9021C68.0164 44.2304 68.1007 44.2683 68.1569 44.342C68.2111 44.4178 68.2492 44.4995 68.2692 44.5892L68.3335 45.1553C68.4237 45.0217 68.5281 44.8922 68.6465 44.7686C68.7648 44.645 68.9053 44.5354 69.0698 44.4417C69.2324 44.348 69.425 44.2723 69.6437 44.2145C69.8624 44.1567 70.1172 44.1288 70.4082 44.1288C70.6831 44.1288 70.9339 44.1547 71.1586 44.2085C71.3833 44.2623 71.586 44.3401 71.7666 44.4437C71.9471 44.5473 72.1117 44.6749 72.2581 44.8264C72.4046 44.9779 72.535 45.1513 72.6534 45.3486C72.7477 45.1632 72.8761 44.9958 73.0367 44.8423C73.1972 44.6889 73.3838 44.5593 73.5945 44.4497C73.8051 44.3401 74.0359 44.2583 74.2887 44.1985C74.5415 44.1387 74.8024 44.1108 75.0753 44.1108C75.5408 44.1108 75.9481 44.1946 76.3012 44.364C76.6544 44.5314 76.9493 44.7626 77.1841 45.0576C77.4208 45.3506 77.5994 45.6934 77.7198 46.0841C77.8402 46.4748 77.9004 46.8933 77.9004 47.3398V51.2564C77.9004 51.398 77.8663 51.5036 77.8001 51.5774C77.7339 51.6511 77.6355 51.685 77.5111 51.685H76.6122C76.4537 51.685 76.3494 51.6551 76.2952 51.5973C76.241 51.5395 76.2149 51.4358 76.2149 51.2863V47.3438C76.2149 47.1365 76.1848 46.9352 76.1267 46.7399C76.0685 46.5445 75.9762 46.3711 75.8518 46.2216C75.7274 46.0721 75.5729 45.9506 75.3843 45.8589C75.1956 45.7672 74.9729 45.7213 74.7141 45.7213C74.4974 45.7213 74.2967 45.7592 74.1121 45.835C73.9275 45.9107 73.767 46.0203 73.6326 46.1638C73.4982 46.3073 73.3938 46.4788 73.3156 46.6801C73.2393 46.8814 73.2012 47.1046 73.2012 47.3518V51.2644C73.2012 51.5455 73.0728 51.687 72.818 51.687H71.913C71.7545 51.687 71.6502 51.6571 71.6 51.5993C71.5499 51.5415 71.5238 51.4378 71.5238 51.2883V47.3518C71.5238 47.1485 71.4957 46.9511 71.4375 46.7558C71.3793 46.5625 71.291 46.3891 71.1706 46.2376C71.0502 46.0841 70.8957 45.9625 70.7071 45.8688C70.5185 45.7752 70.2938 45.7273 70.0329 45.7273C69.8524 45.7273 69.6698 45.7612 69.4892 45.829C69.3086 45.8967 69.1441 45.9964 68.9956 46.126C68.8471 46.2555 68.7267 46.413 68.6324 46.6003C68.5381 46.7877 68.488 47.001 68.4839 47.2402V51.3402C68.4839 51.4418 68.4498 51.5255 68.3836 51.5893C68.3174 51.6531 68.2311 51.687 68.1288 51.687H67.1536C67.0232 51.687 66.9289 51.6571 66.8667 51.5953C66.8065 51.5355 66.7744 51.4478 66.7744 51.3342V44.5772C66.7744 44.4437 66.8246 44.354 66.9249 44.3042H66.9289Z" fill="#168B70"/>
<path d="M85.5783 50.8657C85.2311 51.1587 84.8519 51.3899 84.4406 51.5593C84.0292 51.7267 83.5758 51.8124 83.0842 51.8124C82.5525 51.8124 82.0468 51.7128 81.5713 51.5135C81.0938 51.3141 80.6764 51.0391 80.3192 50.6923C79.9601 50.3434 79.6752 49.9368 79.4645 49.4684C79.2538 49 79.1475 48.4977 79.1475 47.9576C79.1475 47.6088 79.1916 47.2719 79.2779 46.947C79.3642 46.6221 79.4886 46.3172 79.6471 46.0342C79.8076 45.7511 80.0002 45.49 80.229 45.2528C80.4577 45.0156 80.7125 44.8143 80.9934 44.6449C81.2743 44.4775 81.5813 44.3459 81.9104 44.2542C82.2395 44.1625 82.5866 44.1167 82.9538 44.1167C83.2527 44.1167 83.5477 44.1526 83.8406 44.2243C84.1336 44.2961 84.4085 44.3997 84.6713 44.5333C84.9342 44.6668 85.179 44.8283 85.4077 45.0176C85.6364 45.207 85.8371 45.4222 86.0097 45.6614C86.2464 45.9903 86.419 46.3451 86.5293 46.7238C86.6397 47.1025 86.6939 47.5251 86.6939 47.9855C86.6939 48.0991 86.6899 48.1948 86.6798 48.2705C86.6698 48.3463 86.6457 48.408 86.6056 48.4559C86.5655 48.5037 86.5073 48.5376 86.429 48.5575C86.3508 48.5795 86.2404 48.5894 86.0979 48.5894H80.855C80.9072 48.8705 81.0035 49.1216 81.1479 49.3389C81.2924 49.5561 81.463 49.7395 81.6596 49.891C81.8562 50.0425 82.0709 50.1561 82.3037 50.2318C82.5364 50.3076 82.7692 50.3474 83.0019 50.3474C83.1785 50.3474 83.3491 50.3295 83.5136 50.2956C83.6761 50.2597 83.8306 50.2139 83.9711 50.1541C84.1135 50.0943 84.2439 50.0285 84.3643 49.9508C84.4847 49.875 84.5891 49.7953 84.6814 49.7136C84.6814 49.7096 84.6834 49.7076 84.6874 49.7076C84.7355 49.6638 84.7797 49.6299 84.8238 49.604C84.868 49.5781 84.9121 49.5661 84.9603 49.5661C84.9964 49.5661 85.0365 49.5781 85.0806 49.602C85.1268 49.6259 85.1709 49.6638 85.2131 49.7196C85.3194 49.8491 85.4097 49.9568 85.484 50.0425C85.5582 50.1282 85.6204 50.2019 85.6665 50.2597C85.7127 50.3175 85.7488 50.3694 85.7709 50.4132C85.793 50.4571 85.803 50.4989 85.803 50.5428C85.803 50.6524 85.7287 50.762 85.5783 50.8716V50.8657ZM82.9538 45.5697C82.721 45.5697 82.4943 45.6116 82.2736 45.6953C82.0529 45.779 81.8502 45.8946 81.6676 46.0381C81.485 46.1836 81.3245 46.3531 81.1881 46.5484C81.0516 46.7437 80.9533 46.955 80.8891 47.1822H85.0746C85.0124 46.943 84.9161 46.7258 84.7877 46.5285C84.6593 46.3311 84.5048 46.1597 84.3242 46.0182C84.1436 45.8747 83.937 45.7651 83.7042 45.6873C83.4714 45.6096 83.2206 45.5697 82.9538 45.5697Z" fill="#168B70"/>
<path d="M35.5148 54.4834H36.1087L33.8033 58.9242H33.3378L32.7438 55.7132L30.8778 58.9242H30.4043L29.8545 54.4834H30.3902L30.7995 58.0552L32.8361 54.5791H33.0207L33.6849 58.0632L35.5108 54.4854H35.5148V54.4834Z" fill="#3A3937"/>
<path d="M39.2057 57.4071H36.2361C36.232 57.457 36.23 57.5068 36.23 57.5526C36.23 57.8496 36.3183 58.0808 36.4949 58.2503C36.6715 58.4197 36.9183 58.5034 37.2333 58.5034C37.4801 58.5034 37.7108 58.4496 37.9255 58.3419C38.1402 58.2343 38.3208 58.0808 38.4653 57.8815H39.0471C38.8345 58.2363 38.5696 58.5114 38.2546 58.7067C37.9396 58.902 37.5924 58.9977 37.2132 58.9977C36.9243 58.9977 36.6654 58.9339 36.4407 58.8084C36.216 58.6808 36.0414 58.5074 35.917 58.2841C35.7926 58.0629 35.7324 57.8118 35.7324 57.5327C35.7324 57.16 35.8247 56.8132 36.0113 56.4883C36.1979 56.1634 36.4507 55.9063 36.7738 55.7109C37.0968 55.5156 37.446 55.4199 37.8212 55.4199C38.0419 55.4199 38.2445 55.4578 38.4271 55.5315C38.6097 55.6053 38.7642 55.7089 38.8866 55.8385C39.011 55.97 39.1053 56.1255 39.1736 56.3049C39.2418 56.4843 39.2759 56.6796 39.2759 56.8909C39.2759 57.0524 39.2518 57.2238 39.2057 57.4051V57.4071ZM37.8011 55.9043C37.4741 55.9043 37.1791 55.9999 36.9203 56.1933C36.6594 56.3866 36.4708 56.6318 36.3524 56.9328H38.7923V56.9009C38.7923 56.5919 38.704 56.3487 38.5295 56.1714C38.3549 55.994 38.1121 55.9043 37.8011 55.9043Z" fill="#3A3937"/>
<path d="M43.4664 58.9939C42.8866 58.9939 42.4271 58.8265 42.084 58.4936C41.7409 58.1588 41.5703 57.7243 41.5703 57.1861C41.5703 56.8174 41.6425 56.4626 41.787 56.1197C41.9315 55.7769 42.1281 55.4819 42.3749 55.2308C42.6217 54.9816 42.9167 54.7823 43.2598 54.6348C43.6029 54.4873 43.9641 54.4136 44.3433 54.4136C44.8409 54.4136 45.2582 54.5551 45.5953 54.8381C45.9324 55.1212 46.119 55.4999 46.1571 55.9742H45.6214C45.5713 55.6434 45.4308 55.3882 45.2001 55.2029C44.9693 55.0195 44.6723 54.9278 44.3052 54.9278C43.9099 54.9278 43.5427 55.0295 43.2036 55.2328C42.8645 55.4361 42.5976 55.7072 42.403 56.048C42.2064 56.3888 42.1101 56.7536 42.1101 57.1423C42.1101 57.5568 42.2345 57.8837 42.4813 58.1229C42.7281 58.3621 43.0712 58.4817 43.5106 58.4817C43.9019 58.4817 44.263 58.384 44.5901 58.1867C44.9171 57.9894 45.172 57.7183 45.3505 57.3715H45.9184C45.6977 57.8877 45.3686 58.2864 44.9352 58.5714C44.5018 58.8544 44.0142 58.9959 43.4725 58.9959H43.4664V58.9939Z" fill="#3A3937"/>
<path d="M49.988 55.4977H50.3973L49.7071 58.924H49.2797L49.3299 58.4217C48.9246 58.8064 48.445 58.9997 47.8872 58.9997C47.4438 58.9997 47.0866 58.8622 46.8117 58.5871C46.5368 58.3121 46.4004 57.9612 46.4004 57.5327C46.4004 57.3095 46.4365 57.0902 46.5067 56.8789C46.577 56.6677 46.6773 56.4743 46.8097 56.2989C46.9421 56.1235 47.0946 55.97 47.2672 55.8385C47.4398 55.7069 47.6344 55.6053 47.8511 55.5315C48.0678 55.4578 48.2925 55.4199 48.5213 55.4199C48.8102 55.4199 49.065 55.4797 49.2837 55.5973C49.5024 55.7149 49.675 55.8784 49.7974 56.0856L49.988 55.4957V55.4977ZM47.9815 58.5054C48.4029 58.5054 48.7701 58.3439 49.0831 58.023C49.3961 57.7021 49.5526 57.3294 49.5526 56.9068C49.5526 56.6059 49.4563 56.3667 49.2657 56.1873C49.075 56.0079 48.8182 55.9182 48.4992 55.9182C48.2223 55.9182 47.9614 55.992 47.7166 56.1415C47.4719 56.289 47.2772 56.4863 47.1348 56.7314C46.9923 56.9766 46.9201 57.2377 46.9201 57.5128C46.9201 57.7081 46.9642 57.8815 47.0505 58.033C47.1368 58.1845 47.2612 58.3021 47.4217 58.3858C47.5822 58.4675 47.7668 58.5094 47.9815 58.5094V58.5054Z" fill="#3A3937"/>
<path d="M53.0795 55.48H53.3865L53.2842 55.9683H52.9391C52.6361 55.9683 52.3792 56.058 52.1686 56.2354C51.9579 56.4128 51.8114 56.6599 51.7312 56.9769L51.3419 58.9242H50.8242L51.5144 55.4979H51.8776L51.8515 56.0441C52.1786 55.6673 52.5879 55.48 53.0775 55.48H53.0795Z" fill="#3A3937"/>
<path d="M56.7711 57.4071H53.8015C53.7975 57.457 53.7955 57.5068 53.7955 57.5526C53.7955 57.8496 53.8837 58.0808 54.0603 58.2503C54.2369 58.4197 54.4837 58.5034 54.7987 58.5034C55.0455 58.5034 55.2762 58.4496 55.4909 58.3419C55.7056 58.2343 55.8862 58.0808 56.0307 57.8815H56.6126C56.3999 58.2363 56.135 58.5114 55.82 58.7067C55.505 58.902 55.1579 58.9977 54.7786 58.9977C54.4897 58.9977 54.2309 58.9339 54.0061 58.8084C53.7814 58.6808 53.6068 58.5074 53.4824 58.2841C53.358 58.0629 53.2979 57.8118 53.2979 57.5327C53.2979 57.16 53.3901 56.8132 53.5768 56.4883C53.7634 56.1634 54.0162 55.9063 54.3392 55.7109C54.6623 55.5156 55.0114 55.4199 55.3866 55.4199C55.6073 55.4199 55.81 55.4578 55.9926 55.5315C56.1752 55.6053 56.3297 55.7089 56.4521 55.8385C56.5765 55.97 56.6708 56.1255 56.739 56.3049C56.8072 56.4843 56.8413 56.6796 56.8413 56.8909C56.8413 57.0524 56.8172 57.2238 56.7711 57.4051V57.4071ZM55.3665 55.9043C55.0395 55.9043 54.7445 55.9999 54.4857 56.1933C54.2248 56.3866 54.0362 56.6318 53.9179 56.9328H56.3577V56.9009C56.3577 56.5919 56.2695 56.3487 56.0949 56.1714C55.9203 55.994 55.6775 55.9043 55.3665 55.9043Z" fill="#3A3937"/>
<path d="M57.3076 58.9244L57.436 58.2706H58.036L57.9076 58.9244H57.3076ZM57.5885 57.7125L58.2587 54.356H58.7824L58.1122 57.7125H57.5885Z" fill="#3A3937"/>
</svg>
