<svg width="300" height="300" viewBox="0 0 300 300" fill="none" xmlns="http://www.w3.org/2000/svg">
<g opacity="0.2">
<path d="M375.409 271.714L340.74 293.937C334.514 297.941 326.221 296.144 322.191 289.96C318.161 283.775 319.97 275.537 326.196 271.534L388.067 231.86C394.293 227.856 396.076 219.619 392.072 213.434L384.141 201.244C380.111 195.059 371.818 193.289 365.592 197.266L357.351 202.553C351.125 206.556 342.833 204.76 338.802 198.575C334.772 192.391 336.581 184.153 342.807 180.15L365.98 165.291C372.205 161.288 373.988 153.05 369.984 146.865L362.053 134.675C358.023 128.491 349.73 126.72 343.504 130.698L169.721 242.15C163.495 246.154 155.202 244.357 151.172 238.173C147.142 231.988 148.95 223.75 155.176 219.747L314.028 117.841C320.254 113.837 322.036 105.6 318.032 99.4151L310.101 87.2253C306.071 81.0406 297.779 79.2699 291.553 83.2476L156.468 169.884C150.242 173.888 141.95 172.091 137.919 165.907C133.889 159.722 135.698 151.484 141.924 147.481L249.805 78.2947C256.031 74.2914 257.814 66.0537 253.81 59.869L245.879 47.6793C241.849 41.4946 233.556 39.7239 227.33 43.7016L6.14158 185.564C-0.084352 189.568 -1.86685 197.805 2.13738 203.99L10.0683 216.18C14.0984 222.364 22.391 224.135 28.6169 220.158L36.8579 214.871C43.0838 210.868 51.3764 212.664 55.4065 218.849C59.4366 225.033 57.6282 233.271 51.4023 237.274L15.9584 260.012C9.73247 264.015 7.94994 272.253 11.9542 278.437L19.8851 290.627C23.9152 296.812 32.2078 298.582 38.4337 294.605L50.0848 287.137C56.3107 283.133 64.6033 284.93 68.6334 291.115C72.6634 297.299 70.8551 305.537 64.6291 309.54L38.0462 326.58C31.8203 330.584 30.0378 338.821 34.042 345.006L41.973 357.196C46.003 363.38 54.2956 365.151 60.5216 361.173L237.715 247.514C243.941 243.51 252.234 245.307 256.264 251.492C260.294 257.676 258.485 265.914 252.259 269.917L89.9721 374.005C83.7461 378.008 81.9636 386.246 85.9678 392.43L93.8988 404.62C97.9288 410.805 106.221 412.576 112.447 408.598L221.104 338.898C227.33 334.895 235.623 336.691 239.653 342.876C243.683 349.061 241.874 357.298 235.648 361.302L154.195 413.551C147.969 417.554 146.186 425.792 150.19 431.977L158.121 444.166C162.151 450.351 170.444 452.122 176.67 448.144L397.858 306.281C404.084 302.278 405.867 294.04 401.863 287.855L393.932 275.666C389.902 269.481 381.609 267.71 375.383 271.688H375.409V271.714Z" fill="#B0E4DD"/>
<path d="M146.112 53.5052C141.901 72.9831 126.272 87.3798 116.868 94.514C112.916 97.4909 107.284 96.2847 104.933 91.9734C99.3014 81.6314 91.0346 62.1278 95.2713 42.6499C99.4822 23.172 115.112 8.77531 124.515 1.64112C128.468 -1.33574 134.099 -0.129601 136.45 4.18171C142.082 14.5237 150.349 34.0273 146.112 53.5052Z" fill="#B0E4DD"/>
<path d="M67.0055 111.706C56.4653 109.448 48.2502 102.083 43.1868 96.2574C39.6992 92.2541 41.0426 86.0694 45.8735 83.8368C52.9002 80.6033 63.4404 77.2415 73.9806 79.4998C84.5207 81.7581 92.7358 89.1232 97.7993 94.9487C101.287 98.952 99.9434 105.137 95.1125 107.369C88.0858 110.603 77.5456 113.965 67.0055 111.706Z" fill="#B0E4DD"/>
</g>
</svg>
