<svg width="50" height="50" viewBox="0 0 50 50" fill="none" xmlns="http://www.w3.org/2000/svg">
<path d="M27.668 26.1055L19.8555 33.918C19.7103 34.0631 19.538 34.1783 19.3483 34.2569C19.1586 34.3354 18.9553 34.3759 18.75 34.3759C18.5447 34.3759 18.3414 34.3354 18.1517 34.2569C17.962 34.1783 17.7897 34.0631 17.6445 33.918C17.4994 33.7728 17.3842 33.6005 17.3056 33.4108C17.2271 33.2211 17.1866 33.0178 17.1866 32.8125C17.1866 32.6072 17.2271 32.4039 17.3056 32.2142C17.3842 32.0245 17.4994 31.8522 17.6445 31.707L22.791 26.5625H4.6875C4.2731 26.5625 3.87567 26.3979 3.58265 26.1049C3.28962 25.8118 3.125 25.4144 3.125 25C3.125 24.5856 3.28962 24.1882 3.58265 23.8951C3.87567 23.6021 4.2731 23.4375 4.6875 23.4375H22.791L17.6445 18.293C17.3513 17.9998 17.1866 17.6021 17.1866 17.1875C17.1866 16.7729 17.3513 16.3752 17.6445 16.082C17.9377 15.7888 18.3354 15.6241 18.75 15.6241C19.1646 15.6241 19.5623 15.7888 19.8555 16.082L27.668 23.8945C27.8132 24.0396 27.9285 24.212 28.0071 24.4017C28.0858 24.5913 28.1262 24.7947 28.1262 25C28.1262 25.2053 28.0858 25.4087 28.0071 25.5983C27.9285 25.788 27.8132 25.9604 27.668 26.1055ZM37.5 6.25H26.5625C26.1481 6.25 25.7507 6.41462 25.4576 6.70765C25.1646 7.00067 25 7.3981 25 7.8125C25 8.2269 25.1646 8.62433 25.4576 8.91735C25.7507 9.21038 26.1481 9.375 26.5625 9.375H37.5V40.625H26.5625C26.1481 40.625 25.7507 40.7896 25.4576 41.0826C25.1646 41.3757 25 41.7731 25 42.1875C25 42.6019 25.1646 42.9993 25.4576 43.2924C25.7507 43.5854 26.1481 43.75 26.5625 43.75H37.5C38.3288 43.75 39.1237 43.4208 39.7097 42.8347C40.2958 42.2487 40.625 41.4538 40.625 40.625V9.375C40.625 8.5462 40.2958 7.75134 39.7097 7.16529C39.1237 6.57924 38.3288 6.25 37.5 6.25Z" fill="white"/>
</svg>
