<svg width="50" height="50" viewBox="0 0 50 50" fill="none" xmlns="http://www.w3.org/2000/svg">
<path d="M34.3752 31.2499C33.3329 31.2496 32.3011 31.4584 31.341 31.864C30.3808 32.2696 29.5118 32.8637 28.7854 33.6112L19.7815 27.8241C20.4897 26.0079 20.4897 23.9919 19.7815 22.1757L28.7854 16.3886C30.1378 17.774 31.9565 18.6078 33.8888 18.7285C35.8212 18.8491 37.7295 18.248 39.2437 17.0416C40.758 15.8352 41.7704 14.1095 42.0846 12.1991C42.3989 10.2887 41.9925 8.32965 40.9444 6.7018C39.8963 5.07396 38.2811 3.89328 36.4119 3.38868C34.5427 2.88407 32.5528 3.09149 30.8278 3.97072C29.1029 4.84995 27.7659 6.33835 27.076 8.14735C26.3861 9.95635 26.3925 11.9571 27.094 13.7616L18.0901 19.5487C17.0058 18.4356 15.6143 17.6711 14.0933 17.3529C12.5723 17.0348 10.991 17.1774 9.55145 17.7626C8.11194 18.3478 6.87965 19.349 6.0121 20.6382C5.14455 21.9274 4.68115 23.446 4.68115 24.9999C4.68115 26.5538 5.14455 28.0724 6.0121 29.3616C6.87965 30.6508 8.11194 31.652 9.55145 32.2372C10.991 32.8224 12.5723 32.9651 14.0933 32.6469C15.6143 32.3287 17.0058 31.5642 18.0901 30.4511L27.094 36.2382C26.4908 37.7939 26.4015 39.5019 26.8393 41.112C27.277 42.7221 28.2188 44.1498 29.5266 45.186C30.8344 46.2221 32.4397 46.8123 34.1072 46.8702C35.7748 46.9281 37.4171 46.4505 38.7936 45.5075C40.1701 44.5645 41.2085 43.2055 41.7568 41.6296C42.3051 40.0537 42.3344 38.3436 41.8405 36.7499C41.3466 35.1561 40.3554 33.7623 39.0121 32.7726C37.6687 31.7829 36.0438 31.2493 34.3752 31.2499ZM34.3752 6.24991C35.3023 6.24991 36.2086 6.52483 36.9795 7.0399C37.7503 7.55496 38.3511 8.28705 38.7059 9.14358C39.0607 10.0001 39.1535 10.9426 38.9727 11.8519C38.7918 12.7612 38.3453 13.5964 37.6898 14.252C37.0342 14.9075 36.199 15.354 35.2897 15.5348C34.3804 15.7157 33.4379 15.6229 32.5814 15.2681C31.7249 14.9133 30.9928 14.3125 30.4777 13.5416C29.9626 12.7708 29.6877 11.8645 29.6877 10.9374C29.6877 9.69421 30.1816 8.50192 31.0607 7.62285C31.9397 6.74377 33.132 6.24991 34.3752 6.24991ZM12.5002 29.6874C11.5731 29.6874 10.6668 29.4125 9.89599 28.8974C9.12513 28.3824 8.52433 27.6503 8.16954 26.7937C7.81475 25.9372 7.72193 24.9947 7.90279 24.0854C8.08366 23.1761 8.5301 22.3409 9.18566 21.6853C9.84122 21.0298 10.6765 20.5833 11.5857 20.4025C12.495 20.2216 13.4375 20.3144 14.2941 20.6692C15.1506 21.024 15.8827 21.6248 16.3977 22.3957C16.9128 23.1665 17.1877 24.0728 17.1877 24.9999C17.1877 26.2431 16.6939 27.4354 15.8148 28.3145C14.9357 29.1935 13.7434 29.6874 12.5002 29.6874ZM34.3752 43.7499C33.4481 43.7499 32.5418 43.475 31.771 42.9599C31.0001 42.4449 30.3993 41.7128 30.0445 40.8562C29.6898 39.9997 29.5969 39.0572 29.7778 38.1479C29.9587 37.2386 30.4051 36.4034 31.0607 35.7478C31.7162 35.0923 32.5515 34.6458 33.4607 34.465C34.37 34.2841 35.3125 34.3769 36.1691 34.7317C37.0256 35.0865 37.7577 35.6873 38.2727 36.4582C38.7878 37.229 39.0627 38.1353 39.0627 39.0624C39.0627 40.3056 38.5689 41.4979 37.6898 42.377C36.8107 43.2561 35.6184 43.7499 34.3752 43.7499Z" fill="white"/>
</svg>
